<svg xmlns="http://www.w3.org/2000/svg" width="28" height="35" viewBox="0 0 28 35">
    <path fill="#0DC299" fill-rule="nonzero" d="M9.283 34.588C4.203 34.558 0 24.156 0 18.858c0-8.655 6.472-10.55 8.967-10.55 1.124 0 2.324.444 3.383.835.74.274 1.506.556 1.932.556.255 0 .855-.24 1.386-.45 1.13-.452 2.538-1.014 4.177-1.014h.01c1.223 0 4.934.27 7.164 3.63l.523.788-.752.569c-1.074.813-3.035 2.296-3.035 5.234 0 3.48 2.22 4.818 3.287 5.462.47.284.958.577.958 1.217 0 .419-3.328 9.401-8.162 9.401-1.183 0-2.019-.356-2.756-.67-.746-.32-1.39-.593-2.454-.593-.539 0-1.22.255-1.942.527-.986.369-2.103.788-3.37.788h-.033zM20.585 0c.129 4.486-3.204 7.598-6.533 7.403C13.504 3.823 17.381 0 20.585 0z"/>
</svg>
