<svg xmlns="http://www.w3.org/2000/svg" xmlns:xlink="http://www.w3.org/1999/xlink" width="693" height="446" viewBox="0 0 693 446">
    <defs>
        <path id="a" d="M172.86 11.046C321.432-36.903 441.314 87.79 586.502 71.163c32.681-3.742 64.05-15.603 96.778-18.918 32.727-3.317 69.666 4.153 89.085 30.683 30.664 41.89 2.723 106.622 31.275 149.976 27.58 41.88 95.105 43.983 119.176 87.971 16.186 29.574 6.137 67.27 18.183 98.754L116.126 444.65c-8.57 1.223-18.65.13-27.22 1.349-38.999-28.064-54.545-77.19-71.728-119.627C-.909 281.699-4.946 231.306 6.175 184.392 25.786 101.673 92.909 36.85 172.859 11.046z"/>
        <linearGradient id="b" x1="54.395%" x2="50%" y1="90.945%" y2="0%">
            <stop offset="0%" stop-color="#FFF" stop-opacity=".757"/>
            <stop offset="100%" stop-color="#9BEDDA"/>
        </linearGradient>
    </defs>
    <g fill="none" fill-rule="evenodd" opacity=".304">
        <mask id="c" fill="#fff">
            <use xlink:href="#a"/>
        </mask>
        <path fill="url(#b)" d="M941 419.629c-12.046-31.484-1.997-69.18-18.183-98.754-24.071-43.988-91.595-46.09-119.176-87.971-28.552-43.354-.611-108.086-31.275-149.976-19.419-26.53-56.358-34-89.085-30.683-32.728 3.315-64.097 15.176-96.778 18.918C441.315 87.791 321.433-36.903 172.86 11.046 92.91 36.85 25.786 101.673 6.175 184.392c-11.12 46.914-7.084 97.307 11.003 141.98C34.361 368.81 49.908 417.937 88.906 446c8.57-1.219 18.65-.126 27.22-1.35L941 419.63z" mask="url(#c)"/>
    </g>
</svg>
