<svg xmlns="http://www.w3.org/2000/svg" width="271" height="244" viewBox="0 0 271 244">
    <defs>
        <path id="a" d="M.037 0h311.087v311.124H.037z"/>
    </defs>
    <g fill="none" fill-rule="evenodd">
        <path fill="#D6E8E4" d="M270.98 232.675c0 5.965-60.457 10.802-135.036 10.802-74.578 0-135.036-4.837-135.036-10.802 0-5.967 60.458-10.804 135.036-10.804 74.579 0 135.037 4.837 135.037 10.804" opacity=".646"/>
        <path fill="#FFEFC4" d="M232.071 16.545c-1.337-5.904-1.425-7.313-3.28-8.398-.441-.257-1.107-.461-1.883-.628-1.491-1.402-4.233-3.519-7.676-4.068-5.266-.84-7.29-.526-8.587-1.366-1.296-.84-4.701-1.653-5.755.026-1.037 1.656-1.006 7.01.571 9.273-.22 2.508-.106 5.909-.123 9.666-.078 16.782 4.45 17.721 12.517 17.89 10.085.21 15.553-16.49 14.216-22.395"/>
        <path fill="#F3B19B" d="M214.43 22.43c-1.849-1.115-3.518 2.655-3.518 2.655s-.045-.557-1.352-2.528c-1.308-1.97.36-9.637.36-9.637-1.894.642-4.515-.986-4.515-.986-.227 2.457-.11 5.787-.127 9.467-.052 10.74 1.918 14.853 5.604 16.46-.75-2.676.887-8.75.887-8.75 1.262-.686 4.509-5.568 2.66-6.682"/>
        <path fill="#E1A18D" d="M161.285 13.015s-1.772 6.115-1.32 11.255c.451 5.14 2.258 9.84 3.072 10.193.813.354 3.975 0 3.975 0l3.794-6.47 2.048-12.496-11.57-2.482M57.042 30.843s1.94-1.082 2.313-.193c.372.888-.813 5.389-2.533 5.03-1.72-.357-1.72-.782-1.72-.782l1.94-4.055M49.943 41.102s.094 3.288.796 3.873c.702.585-7.58 1.872-8.936 1.443-1.357-.429-1.825-.663-1.825-.663s1.45-1.443.983-2.886c-.469-1.442 8.982-1.767 8.982-1.767M20.1 64.869s-5.393 14.077-6.044 18.148c-.36 2.255 18.213 17.501 18.213 17.501l4.468-6.099-14.094-12.447 4.423-11.801-6.967-5.302"/>
        <path fill="#31A081" d="M33.802 220.43s-.628 6.813-.084 7.22c.543.408 10.638.408 12.268.227 1.63-.181-1.403-2.037-2.173-2.354-.77-.316-3.667-1.81-4.165-2.172-.497-.362-1.093-2.92-1.093-2.92h-4.753M51.864 220.59s-.07 6.653.464 7.06c.532.408 10.434.408 12.032.227 1.598-.181-1.376-2.037-2.13-2.354-.756-.316-3.598-1.81-4.086-2.172-.489-.362-1.218-2.92-1.218-2.92l-5.062.16"/>
        <path fill="#D4D4D2" d="M25.628 49.745S17.29 64.89 17.292 72.152c0 1.534 11.048 6.497 12.681 3.822 1.632-2.675-4.345-26.23-4.345-26.23"/>
        <path fill="#D4D4D2" d="M44.472 45.441c4.408.132 10.754-3.333 15.448 1.412 10.346 10.459 4.498 40.205 2.808 48.264h-31.84s-8.576-38.068-5.28-46.103c1.648-4.017 8.883-3.87 18.864-3.573"/>
        <path fill="#E1A18D" d="M29.175 47.007s-1.15-2.605-2.143-2.657c-.994-.052-2.537.181-3.556 1.017-1.62 1.328-1.987 3.866-1.83 4.89.157 1.024 1.865 1.659 2.41 1.648.543-.011 1.877 0 1.877 0l3.242-4.898M67.813 67.82l-.828 5.258s5.391 13.418 6.766 13.947c1.375.53 7.278.53 7.278.53L69.865 64.869l-2.052 2.951"/>
        <path fill="#D4D4D2" d="M58.343 45.423s2.91.24 6.394 5.61c3.486 5.371 8.394 17.733 7.555 19.694-.838 1.96-8.66 4.945-8.66 4.945l-5.289-30.249"/>
        <path fill="#1E2443" d="M66.98 115.665c-.251-10.684-4.27-20.548-4.27-20.548H31.029s-6.175 7.452-6.174 26.35c0 4.911 2.162 17.03 2.162 17.03l2.12 19.277 4.736 61.907c.032.424.377.75.791.75h4.838c.415 0 .76-.327.792-.751l5.63-75.498 4.83 75.489c.026.427.373.76.791.76h4.853c.405 0 .744-.31.789-.723.936-8.736 10.035-93.91 9.795-104.043"/>
        <path fill="#8C5E4F" d="M107.89 15.369s.32 7.685.512 8.922c.193 1.237 1.795 2.15 1.795 3.126 0 .977-1.41 2.605-1.73 3.061-.321.456-.257 5.12-1.475 6.11-1.217.989-15.062-2.137-15.062-2.137l-1.178-11.527s9.702-9.184 17.138-7.555"/>
        <path fill="#1E1F29" d="M86.955 33.577s-5.93-8.198-5.926-18.195c.001-4.864 3.383-4.89 5.105-6.866 1.722-1.975 6.057-6 12.88-6.304 6.824-.304 7.079-3.495 9.374-1.52 2.296 1.976.957 8.584 0 9.496-.956.912.574-.304 1.594 1.747 1.021 2.051-1.785 4.593-4.463 4.879-2.679.286-3.189 0-3.189 0s1.573 3.553.978 6.06c-.595 2.507-1.998 5.697-2.189 6.457-.191.76-.957-4.296-2.423-4.751-1.467-.456-2.36 2.776-1.53 4.295.828 1.52 2.869 3.8 1.785 6.078-1.084 2.278-11.996-1.376-11.996-1.376"/>
        <path fill="#B4684D" d="M80.263 220.43s-.645 6.813-.086 7.22c.559.408 9.421.408 11.098.227 1.675-.181-.885-3.042-1.677-3.36-.791-.317-3.195-1.958-3.708-2.32-.511-.363-.738-1.766-.738-1.766h-4.889M101.558 220.59s-.07 6.653.464 7.06c.532.408 10.433.408 12.031.227 1.599-.181-1.376-2.037-2.13-2.354-.755-.316-3.597-1.81-4.085-2.172-.489-.362-1.219-2.92-1.219-2.92l-5.061.16"/>
        <path fill="#E1A18D" d="M187.006 108.08l.518 58.36 14.498 53.978-5.936.825-22.191-51.335-4.996-32.085-8.495 83.688-6.471-.536-1.604-105.201 34.677-7.694"/>
        <path fill="#204069" d="M162.923 222.885c-.213-1.508-1.57-2.287-1.57-2.287s-6.25-.393-6.82.025c-.569.42-3.058 2.01-5.262 2.262-1.978.225-6.878 1.8-7.707 4.24-.14.415.122.868.501.868h20.36c.997 0 .711-3.601.498-5.108M205.044 219.64c-.603-1.24-1.966-1.37-1.966-1.37s-5.37 2.203-5.73 2.803c-.201.334-.806 1.225-1.605 2.143-1.948.332-5.941 1.78-6.65 3.957-.127.392.11.82.454.82h8.488l8.029-3.662c.837-.405-.416-3.454-1.02-4.692M85.861 102.679l-14.554 4.17 7.344 113.723a.993.993 0 0 0 .983.94h5.068c.511 0 .937-.4.98-.92l6.837-81.69 7.557 81.699c.048.516.473.91.98.91h4.564c.519 0 .95-.412.983-.941l6.835-109.988-27.577-7.903"/>
        <path fill="#ACC5D0" d="M196.62 106.848l6.034 114.663h7.214l6.575-80.55 8.511 80.55h6.904l6.894-110.93-27.577-7.902-14.554 4.17"/>
        <path fill="#26272F" d="M115.599 114.562l3.198 106.46a.932.932 0 0 0 .8.907l5.082.655a.92.92 0 0 0 1.022-.84l8.724-88.108 10.423 87.67c.06.498.485.861.97.827l4.837-.342a.93.93 0 0 0 .851-.903l4.063-104.576-39.97-1.75"/>
        <path fill="#F8E39D" d="M108.01 36.568s-7.812-3.305-18.185-3.009c-10.372.296-19.464 5.076-19.976 6.109-.512 1.034.767 38.976-.897 53.346-2.169 18.73.28 23.795.643 24.327 5.764 8.403 32.524 8.353 41.105 4.22 8.58-4.134 9.22-21.306 9.22-21.306l-11.91-63.687"/>
        <path fill="#FFF" d="M69.254 77.832c-.029 1.531-.064 3.027-.108 4.474 7.43 1.544 17.56 3.088 28.372 3.088 6.292 0 12.813-.523 19.16-1.874l-.77-4.307c-16.815 3.551-35.265 1.005-46.654-1.38M68.278 99.438a142.474 142.474 0 0 0-.212 4.89c7.472 1.806 18.183 3.752 29.668 3.752 7.14 0 14.573-.775 21.71-2.78.33-2.495.444-4.406.476-5.076-18.372 5.627-39.659 2.123-51.642-.786M115.601 118.157c.882-1.66 1.592-3.508 2.158-5.39-17.956 4.71-38.162 1.344-49.693-1.446.156 2.287.404 3.933.65 5.084 7.457 1.747 17.873 3.559 29.01 3.559 5.87 0 11.936-.526 17.875-1.807M68.44 89.715a93.04 93.04 0 0 1-.37 4.33l-.004.038c7.564 1.57 18.104 3.194 29.371 3.194 7.037 0 14.35-.658 21.402-2.333l-.772-4.224c-17.733 4.216-37.7 1.472-49.628-1.005"/>
        <path fill="#229DA4" d="M70.242 68.11c-.001 1.5-.006 3.004-.016 4.505 7.424 1.534 17.488 3.057 28.223 3.057 5.63 0 11.44-.443 17.15-1.499l-.77-4.304c-16.23 2.946-33.632.531-44.587-1.76"/>
        <path fill="#FFF" d="M69.146 45.423c.002 1.3.01 2.812.022 4.499 7.372 1.535 17.393 3.063 28.084 3.063 4.252 0 8.608-.262 12.945-.842l-.765-4.3c-14.943 1.91-30.333-.32-40.286-2.42M106.444 35.512c-9.074.693-18.118.11-25.87-.892-3.397.885-6.257 2.033-8.187 3 7.12 1.269 16.141 2.402 25.693 2.402 3.628 0 7.333-.173 11.037-.554l-.612-3.23s-.743-.308-2.061-.726M70.226 56.226c.01 1.456.02 2.964.027 4.51 7.214 1.531 16.993 3.052 27.425 3.052 4.819 0 9.775-.33 14.68-1.127l-.752-4.322c-15.21 2.401-31.184.081-41.38-2.113"/>
        <path fill="#22262C" d="M187.505 99.438s9.13 8.316 7.926 29.098c-1.206 20.781-5.947 31.398-5.947 31.398h-37.571s-4.528-32.41-2.12-43.2c2.41-10.792 8.133-16.198 8.133-16.198l29.579-1.098"/>
        <path fill="#D4D4D2" d="M192.04 140.674c-2.21-1.761-4.496-3.581-6.944-3.964-2.968-.467-5.33.907-7.623 2.231-2.11 1.22-4.293 2.482-7.13 2.526-2.997.035-6.182-1.656-9.261-3.303-3.091-1.652-6.025-3.21-8.766-3.067-1.123.059-2.207.368-3.228.815.047.76.1 1.52.153 2.28 1.007-.53 2.085-.905 3.181-.962 2.19-.112 4.853 1.314 7.682 2.825 3.314 1.77 6.706 3.601 10.272 3.548 3.374-.052 5.905-1.515 8.136-2.806 2.161-1.248 4.034-2.326 6.264-1.976 1.904.297 3.97 1.943 5.969 3.534 1.097.874 2.21 1.75 3.338 2.455.13-.738.255-1.5.377-2.288-.79-.551-1.597-1.193-2.42-1.848"/>
        <path fill="#D4D4D2" d="M192.952 145.418c-2.224-1.894-4.523-3.853-6.986-4.264-2.984-.5-5.361.977-7.667 2.4-2.122 1.313-4.318 2.671-7.172 2.718-3.015.034-6.218-1.783-9.316-3.553-3.108-1.778-6.06-3.45-8.817-3.3-.975.053-1.923.312-2.826.69.063.807.128 1.606.195 2.397.88-.437 1.801-.74 2.739-.793 2.203-.117 4.88 1.414 7.726 3.04 3.333 1.905 6.746 3.85 10.332 3.816 3.395-.055 5.94-1.629 8.184-3.017 2.174-1.343 4.058-2.502 6.301-2.128 1.915.32 3.993 2.091 6.003 3.803a56.467 56.467 0 0 0 2.329 1.904c.162-.777.323-1.593.483-2.447-.496-.404-1-.833-1.508-1.266"/>
        <path fill="#D4D4D2" d="M159.925 152.012c3.21 1.797 6.495 3.646 9.949 3.6 3.268-.053 5.719-1.537 7.88-2.846 2.093-1.267 3.907-2.36 6.067-2.007 1.844.302 3.845 1.972 5.78 3.587.345.288.693.574 1.04.858.188-.696.38-1.446.578-2.262l-.362-.303c-2.142-1.786-4.355-3.633-6.726-4.022-2.875-.472-5.163.92-7.383 2.265-2.044 1.238-4.158 2.518-6.906 2.563-2.903.028-5.987-1.681-8.97-3.351-2.994-1.677-5.835-3.261-8.49-3.113a8.076 8.076 0 0 0-2.214.46c.072.756.145 1.496.217 2.215.683-.28 1.386-.473 2.1-.512 2.121-.105 4.7 1.334 7.44 2.868"/>
        <path fill="#D4D4D2" d="M190.139 156.404c-1.83-1.582-3.722-3.038-5.727-3.385-2.856-.497-5.13.966-7.337 2.376-2.03 1.3-4.132 2.643-6.862 2.69-2.886.025-5.951-1.764-8.915-3.517-2.975-1.76-5.8-3.416-8.438-3.266a7.342 7.342 0 0 0-1.612.295c.084.806.164 1.562.241 2.275a5.79 5.79 0 0 1 1.474-.3c2.108-.108 4.671 1.4 7.394 3.01 2.275 1.345 4.59 2.691 6.975 3.352h5.635c1.96-.564 3.608-1.602 5.108-2.562 2.08-1.33 3.883-2.48 6.03-2.105 1.7.294 3.535 1.824 5.328 3.398.19-.565.43-1.32.706-2.26M171.025 103.759c3.292-.056 5.76-1.622 7.937-3.006l.374-.235-4.921.202c-1.046.431-2.166.73-3.422.75-.939.007-1.898-.187-2.866-.494l-4.996.204c2.558 1.422 5.174 2.604 7.894 2.579M191.689 116.974c-2.189-1.781-4.451-3.624-6.875-4.012-2.938-.47-5.277.919-7.546 2.258-2.09 1.236-4.25 2.513-7.059 2.557-2.967.01-6.12-1.676-9.169-3.342-3.06-1.672-5.964-3.244-8.678-3.105-.474.025-.94.11-1.4.217-.28.797-.547 1.632-.794 2.511.744-.314 1.517-.528 2.3-.57 2.168-.113 4.804 1.33 7.604 2.86 3.281 1.792 6.64 3.626 10.17 3.591 3.34-.053 5.845-1.533 8.054-2.84 2.14-1.263 3.994-2.353 6.202-2 1.885.301 3.93 1.966 5.908 3.577 1.674 1.362 3.38 2.735 5.134 3.448a58.563 58.563 0 0 0-.155-2.446c-1.187-.663-2.424-1.668-3.696-2.704"/>
        <path fill="#D4D4D2" d="M192.412 111.68c-2.124-1.843-4.32-3.748-6.672-4.148-2.85-.486-5.12.95-7.322 2.335-2.027 1.277-4.125 2.596-6.85 2.642-2.88.015-5.939-1.733-8.897-3.455-2.488-1.448-4.87-2.813-7.125-3.134a38.79 38.79 0 0 0-1.057 2.161c2.079-.04 4.583 1.404 7.242 2.952 3.184 1.851 6.443 3.77 9.869 3.71 3.241-.054 5.672-1.584 7.815-2.934 2.077-1.306 3.876-2.435 6.018-2.069 1.83.312 3.814 2.034 5.734 3.698 1.43 1.24 2.884 2.497 4.373 3.285a52.128 52.128 0 0 0-.522-2.903c-.848-.619-1.718-1.37-2.606-2.14"/>
        <path fill="#D4D4D2" d="M185.981 101.068c-2.96-.485-5.318.943-7.604 2.319-2.105 1.267-4.283 2.578-7.113 2.623-2.99.018-6.167-1.72-9.24-3.43-1.36-.757-2.687-1.486-3.983-2.062a25.514 25.514 0 0 0-1.391 1.8c1.386.558 2.867 1.372 4.399 2.226 3.306 1.838 6.69 3.73 10.248 3.685 3.366-.055 5.89-1.573 8.116-2.914 2.156-1.297 4.024-2.418 6.25-2.054 1.899.31 3.96 2.019 5.953 3.672.937.776 1.885 1.557 2.844 2.228a37.451 37.451 0 0 0-1.554-3.977c-2.205-1.829-4.484-3.718-6.925-4.116M192.395 134.525c-2.214-1.866-4.504-3.796-6.957-4.201-2.972-.493-5.34.961-7.636 2.364-2.114 1.295-4.3 2.63-7.143 2.678-3.003.04-6.193-1.756-9.278-3.5-3.096-1.751-6.036-3.394-8.782-3.251-1.227.067-2.407.453-3.511 1 .024.815.057 1.644.093 2.48 1.104-.668 2.302-1.153 3.525-1.22 2.194-.108 4.862 1.393 7.695 2.994 3.32 1.876 6.719 3.802 10.291 3.76 3.38-.056 5.915-1.605 8.15-2.973 2.166-1.323 4.042-2.466 6.276-2.095 1.908.315 3.978 2.06 5.98 3.745 1.364 1.15 2.75 2.303 4.164 3.103.097-.786.189-1.597.278-2.423-1.018-.672-2.068-1.555-3.145-2.461M191.645 123.46c-2.182-1.784-4.438-3.627-6.855-4.014-2.928-.473-5.26.918-7.523 2.26-2.083 1.235-4.238 2.512-7.037 2.556-2.96.047-6.102-1.676-9.142-3.343-3.05-1.673-5.946-3.252-8.652-3.107-1.068.057-2.101.349-3.077.775a36.153 36.153 0 0 0-.271 2.539c1.082-.631 2.255-1.09 3.454-1.154 2.161-.11 4.79 1.331 7.581 2.861 3.271 1.793 6.62 3.641 10.139 3.592 3.33-.053 5.828-1.533 8.03-2.84 2.134-1.265 3.982-2.354 6.183-2.002 1.88.302 3.919 1.968 5.89 3.579 1.665 1.36 3.362 2.73 5.106 3.444.037-.793.06-1.568.07-2.325-1.247-.658-2.552-1.724-3.896-2.821"/>
        <path fill="#D4D4D2" d="M191.918 127.87c-2.187-1.812-4.448-3.684-6.87-4.078-2.935-.477-5.273.933-7.54 2.296-2.087 1.255-4.247 2.553-7.053 2.597-2.965.043-6.115-1.703-9.161-3.396-3.058-1.7-5.96-3.3-8.672-3.156-1.23.067-2.412.451-3.516.995-.015.804-.021 1.627-.017 2.479 1.133-.696 2.372-1.21 3.64-1.28 2.166-.108 4.8 1.352 7.597 2.906 3.278 1.822 6.634 3.676 10.162 3.65 3.338-.054 5.84-1.558 8.047-2.886 2.139-1.285 3.991-2.394 6.197-2.034 1.884.306 3.928 1.999 5.904 3.636 1.54 1.275 3.11 2.565 4.717 3.328.067-.768.129-1.552.187-2.352-1.163-.673-2.376-1.674-3.622-2.705"/>
        <path fill="#2C5164" d="M155.011 34.61c8.974-2.212 29.968-1.653 36.078 8.074 5.014 7.982.124 15.193.862 27.016.799 12.795 1.295 25.557.04 29.369-2.412 7.333-6.92 2.005-19.157 2.203-12.237.198-21.783 7.927-24.314 0-2.532-7.928-12.394-62.009 6.491-66.662"/>
        <path fill="#E1A18D" d="M159.093 43.315s2.916-3.444 3.668-3.288c.752.157.188 1.775.188 1.775s4.044-.355 6.113.422c2.07.777 3.48 4.337 2.258 5.036-1.223.699-4.17-.032-5.472.647-1.3.678-3.04.939-3.793.626-.752-.314-3.245-.314-3.245-.314l.283-4.904"/>
        <path fill="#66DCBD" d="M146.2 45.25c4.082 1.861 10.756 6.046 15.94 8.233 5.183 2.187 31.75 9.004 32.786 10.419 1.037 1.415 1.159 12.368-2.855 14.417-4.014 2.049-34.078.634-34.078.634s7.559 56.641 9.806 64.017c0 0-10.368 18.866-35.422 16.807-25.053-2.058-32.31-15.264-32.31-15.264s9.503-55.741 8.466-63.803c0 0-37.667 1.201-39.568-1.886-1.9-3.088-4.342-8.576-2.268-12.35 2.074-3.772 36.306-10.633 43.736-16.808 7.43-6.174 27.088-8.373 35.767-4.416"/>
        <path fill="#E1A18D" d="M159.608 90.848s-2.915-3.445-3.667-3.288c-.753.157-.189 1.775-.189 1.775s-4.044-.356-6.114.422c-2.068.777-3.48 4.337-2.256 5.036 1.222.699 4.17-.032 5.47.646 1.302.678 3.042.94 3.794.627.752-.314 3.245-.314 3.245-.314l-.283-4.904"/>
        <path fill="#202128" d="M125.932 19.394c3.224-2.172 11.024-3.559 15.763.77 4.74 4.328 3.133 12.815 4.835 17.603 1.704 4.789 6.036 7.742 1.906 11.903-4.13 4.161-14.284 8.444-21.344 5.677-7.06-2.766-11.315-7.898-10.25-11.392 1.063-3.495 4.738-8.69 4.738-12.056 0-3.367 1.354-10.485 4.352-12.505"/>
        <path fill="#F8E39D" d="M103.334 50.432c-1.719-3.606-.262-13.103 4.318-13.638 4.58-.535 21.202 15.78 25.913 15.377 4.711-.402 23.295-9.628 25.389-8.692 2.094.936 2.748 5.349 1.047 7.622-1.7 2.272-20.907 17.248-27.925 18.05-7.018.803-25.094-11.064-28.742-18.72M69.463 41.13s-13.704 10.098-18.14 10.61c-4.439.51-22.58-5.224-23.885-4.713-1.305.511-3.263 2.75-2.349 4.505.913 1.754 19.185 16.046 25.45 16.557 6.264.51 17.124-8.597 18.964-9.967 3.092-2.303 1.615-17.755-.04-16.992"/>
        <path fill="#58C5B9" d="M152.347 88.206a1.906 1.906 0 0 1 1.27-2.071c6.031-2.054 28.52-10.08 32.373-16.794 4.459-7.769 10.391-26.152 13.248-28.725 2.858-2.572 32.21-3.872 36.626-1.532 4.416 2.34 19.092 33.544 19.092 40.305 0 7.41-14.936 19.762-14.936 19.762s2.338 15.428-4.676 17.075c-7.013 1.647-39.482 2.514-42.08 0-2.598-2.513.26-30.51.26-30.51s-4.382 5.29-7.187 6.414c-4.124 1.653-24.26 5.102-30.624 6.168a1.906 1.906 0 0 1-2.201-1.628l-1.165-8.464"/>
        <path fill="#575757" d="M148.667 221.511s.77 6.746.226 7.19c-.544.443-10.66.443-12.294.246-1.633-.197 1.407-2.216 2.178-2.56.77-.345 3.675-1.97 4.173-2.364.5-.394 1.452-2.208 1.452-2.208l4.265-.304M122.74 221.511s.77 6.746.226 7.19c-.545.443-10.66.443-12.294.246-1.633-.197 1.406-2.216 2.177-2.56.772-.345 3.676-1.97 4.174-2.364.499-.394 1.452-2.208 1.452-2.208l4.264-.304"/>
        <path fill="#B4684D" d="M201.905 220.818s1.123-1.596 4.532-1.46c3.409.138 3.533.868 3.617 1.46.083.593 1.455 6.2-.208 6.793-1.663.592-14.134.319-15.049.319-.914 0 .125-2.416 1.996-3.51 1.87-1.094 3.118-1.094 3.574-1.414.458-.32 1.538-2.188 1.538-2.188M223.512 220.818s1.122-1.596 4.53-1.46c3.41.138 3.535.868 3.618 1.46.083.593 1.454 6.2-.208 6.793-1.663.592-14.135.319-15.05.319-.914 0 .126-2.416 1.996-3.51 1.871-1.094 3.118-1.094 3.576-1.414.457-.32 1.538-2.188 1.538-2.188"/>
        <path fill="#783A2C" d="M48.165 13.243c2.505.322 6.195 1.62 8.777 5.05 2.581 3.428 1.162 11.47-.775 17.101-1.936 5.63-9.035 10.06-14.327 8.04-5.292-2.018-7.227-8.04-7.227-8.04s-2.84-1.731-4.357 2.417c-2.164 5.918-8.357 3.083-9.39 9.274-.488 2.934 8.583 9.981.323 14.807-8.26 4.826-18.457-12.983-16.65-21.36 1.807-8.377 6.389-8.826 12.714-10.333 6.324-1.508 2.962-6 8.613-6.782 5.649-.783 7.843 4.108 7.843 4.108s-3.854-16.638 14.456-14.282"/>
        <path fill="#BADEEE" d="M33.496 26.133s1.086-.589 2.586.53c1.499 1.119.14 8.707-1.218 8.974-1.36.268-1.368-.397-1.368-.397s1.453-4.248 1.62-5.804c.17-1.557-1.62-3.303-1.62-3.303"/>
        <path fill="#783A2C" d="M28.095 22.951s-2.449-.807-6.033.713c-3.585 1.52-6.96 7.05-10.186 8.309l-3.226 1.26 3.576.307s2.536-2.28 4.372-4.274c1.835-1.994 4.578-4.653 6.747-4.843 2.17-.19 4.75-1.472 4.75-1.472M29.175 37.861s-1.35 4.35-4.253 6.123c-2.904 1.773-4.795 6.776-4.187 7.62.608.843-1.282-.352-1.282-.352s2.498-6.042 4.861-7.727c2.363-1.685 2.746-3.34 2.746-3.34l2.115-2.324M12.498 58.387c-.41-.276-1.317-.524-2.37-.811-2.44-.666-5.782-1.578-7.2-3.956-2.019-3.383.61-11.11.722-11.437l.766.226c-.027.077-2.637 7.748-.785 10.852 1.259 2.11 4.419 2.972 6.724 3.602 1.17.32 2.094.571 2.616.923l-.473.6"/>
        <path fill="#C07556" d="M162.13 5.571s-3.502-.774-4.27 1.635c-.77 2.409 2.069 6.452 3.724 6.624 0 0-.309 5.507.972 7.485 1.282 1.979 1.11 3.355 1.11 3.355s1.794-4.13 3.16-3.527c1.367.602.428 5.592-2.647 6.452 0 0 .43 4.087 2.563 5.27 2.134 1.183 4.739 1.183 4.739 1.183s-7.836 2.827-5.527 7.943c.875 1.939 3.817 2.38 2.858 4.961-.961 2.581-.995 10.642 4.376 11.357 5.374.715 8.242-3.614 7.389-7.055-.855-3.441 1.707-6.882 3.757-8.43 2.05-1.55 2.121-3.83-.705-6.915-2.178-2.378-6.981-3.053-6.981-3.053s6.234-2.078 7.43-12.574c1.195-10.495-7.047-14.539-13.174-14.022-6.127.516-8.775-.689-8.775-.689"/>
        <path fill="#1E2443" d="M169.613 33.941s.022.716 1.464.678c1.442-.038 6.982-1.263 7.117-1.577.135-.314.135-.617-.946-.579-1.08.038-7.635 1.478-7.635 1.478"/>
        <path fill="#3CAA9E" d="M239.499 98.358s.549-.527 1.414-1.419c-2.587-10.429-3.685-43.954-3.685-43.954-2.272 15.476 2.27 45.373 2.27 45.373"/>
    </g>
</svg>
