<svg xmlns="http://www.w3.org/2000/svg" width="30" height="30" viewBox="0 0 30 30">
    <path fill="#FFF" fill-rule="nonzero" d="M20.28 3a6.594 6.594 0 0 1 6.588 6.587V20.28a6.594 6.594 0 0 1-6.587 6.587H9.586A6.594 6.594 0 0 1 3 20.28V9.587A6.594 6.594 0 0 1 9.586 3h10.695zm4.47 17.281V9.587a4.474 4.474 0 0 0-4.47-4.47H9.587a4.474 4.474 0 0 0-4.468 4.47V20.28a4.474 4.474 0 0 0 4.468 4.469h10.695a4.474 4.474 0 0 0 4.47-4.469zM14.934 8.784a6.157 6.157 0 0 1 6.15 6.15 6.157 6.157 0 0 1-6.15 6.15 6.157 6.157 0 0 1-6.15-6.15 6.157 6.157 0 0 1 6.15-6.15zm0 10.182a4.037 4.037 0 0 0 4.032-4.032 4.037 4.037 0 0 0-4.032-4.032 4.037 4.037 0 0 0-4.033 4.032 4.037 4.037 0 0 0 4.033 4.032zm6.408-11.978c.41 0 .81.166 1.098.455.29.288.455.689.455 1.098 0 .408-.165.81-.455 1.099-.29.288-.689.454-1.098.454-.408 0-.81-.166-1.097-.454-.29-.29-.456-.69-.456-1.099 0-.41.166-.81.456-1.098a1.56 1.56 0 0 1 1.097-.455z"/>
</svg>
