<svg xmlns="http://www.w3.org/2000/svg" width="28" height="36" viewBox="0 0 28 36">
    <path fill="#0DC299" fill-rule="nonzero" d="M21.442 13.68a.75.75 0 0 1 .758.744v11.904c0 1.798-1.304 3.3-3.032 3.646v3.794c0 1.23-1.02 2.232-2.274 2.232-1.253 0-2.274-1.001-2.274-2.232v-3.72h-1.515v3.72c0 1.23-1.02 2.232-2.274 2.232s-2.274-1.001-2.274-2.232v-3.794c-1.728-.347-3.032-1.848-3.032-3.646V14.424c0-.41.34-.744.758-.744h15.16zM17.83 4.076a8.432 8.432 0 0 1 4.37 7.4c0 .421-.34.764-.758.764H6.283a.762.762 0 0 1-.758-.765 8.43 8.43 0 0 1 4.372-7.399L8.619 1.067A.766.766 0 0 1 9.016.064c.38-.17.83.012.995.402l1.28 3.01a8.236 8.236 0 0 1 2.573-.414c.897 0 1.761.148 2.572.414l1.278-3.01a.753.753 0 0 1 .995-.402.766.766 0 0 1 .398 1.003l-1.277 3.01zm-7 5.105a.762.762 0 0 0 .759-.765.762.762 0 0 0-.758-.765.762.762 0 0 0-.758.765c0 .422.34.765.758.765zm6.064 0a.762.762 0 0 0 .758-.765.762.762 0 0 0-.758-.765.762.762 0 0 0-.758.765c0 .422.34.765.758.765zm8.931 3.779c1.2 0 2.175 1.03 2.175 2.295v7.65c0 1.265-.976 2.295-2.175 2.295-1.2 0-2.175-1.03-2.175-2.295v-7.65c0-1.265.976-2.295 2.175-2.295zM2.175 13c1.2 0 2.175 1.03 2.175 2.295v7.65c0 1.265-.976 2.295-2.175 2.295C.975 25.24 0 24.21 0 22.945v-7.65C0 14.03.976 13 2.175 13z"/>
</svg>
