<svg xmlns="http://www.w3.org/2000/svg" width="30" height="30" viewBox="0 0 30 30">
    <path fill="#FFF" fill-rule="nonzero" d="M28.55 6.56c-1.044.45-2.089.73-3.133.843 1.18-.707 1.977-1.707 2.392-2.998a10.681 10.681 0 0 1-3.453 1.314C23.277 4.573 21.952 4 20.38 4c-1.505 0-2.788.53-3.85 1.592-1.061 1.061-1.592 2.344-1.592 3.85 0 .404.045.82.135 1.246a15.163 15.163 0 0 1-6.259-1.676 15.427 15.427 0 0 1-4.961-4.018 5.33 5.33 0 0 0-.741 2.746 5.3 5.3 0 0 0 .657 2.594 5.436 5.436 0 0 0 1.769 1.937 5.398 5.398 0 0 1-2.46-.69v.067c0 1.314.413 2.468 1.238 3.462a5.353 5.353 0 0 0 3.125 1.878c-.471.124-.949.186-1.432.186-.314 0-.657-.028-1.027-.084a5.325 5.325 0 0 0 1.92 2.687 5.31 5.31 0 0 0 3.167 1.086c-1.976 1.55-4.228 2.325-6.755 2.325-.483 0-.92-.022-1.314-.067 2.527 1.628 5.312 2.442 8.356 2.442 1.932 0 3.746-.305 5.441-.918 1.696-.612 3.145-1.432 4.347-2.46a16.46 16.46 0 0 0 3.108-3.546 15.813 15.813 0 0 0 1.946-4.186 15.465 15.465 0 0 0 .623-5.08 11.396 11.396 0 0 0 2.73-2.812z"/>
</svg>
